<svg width="82" height="81" viewBox="0 0 82 81" fill="none" xmlns="http://www.w3.org/2000/svg">
<path fill-rule="evenodd" clip-rule="evenodd" d="M23.3251 3.96124C21.1557 4.90235 19.5011 5.92443 17.8542 7.06568C31.1397 1.15165 47.3586 1.53512 56.0639 5.41873C58.8001 6.68985 60.6381 7.45985 61.4722 8.97846C52.44 6.55846 48.5594 6.12151 40.9985 6.30485C30.2429 6.49887 15.9399 10.7553 10.4719 14.0079L8.0657 17.0008C15.9399 12.3426 30.631 9.30082 38.774 9.0411C47.8674 8.91887 54.9211 9.74693 61.4111 12.0997C61.0231 13.7497 60.1981 14.5778 58.8001 15.4089C32.8585 10.8897 17.5318 16.2278 3.67028 25.263L2.65736 28.2483C18.1093 17.6318 37.0507 14.7107 55.3046 17.8885C48.7565 20.1786 40.9358 20.6858 34.3878 22.2014C28.7931 23.4786 25.8032 23.8636 18.3568 26.3478C10.8004 28.8304 6.33931 31.3742 3.54653 34.6176C2.20972 36.1515 1.19069 37.9283 0.934028 39.8304C0.814862 40.9701 0.877501 41.9983 1.2625 43.0173C1.56806 43.9065 2.26931 44.7972 3.03778 45.6864C2.15167 47.2111 1.37708 49.1896 2.65584 51.4812C3.2257 52.5553 4.68778 53.6354 6.09486 54.6636L5.70222 55.7972C5.51125 57.1416 5.32639 58.729 6.21556 60.0612C7.73722 62.4782 9.58125 64.0732 12.5069 65.5994C12.9561 67.5733 13.6482 69.1591 15.176 70.5647C18.4179 73.55 25.6718 79.2761 38.5754 80.1683C48.2463 80.81 55.1732 77.8782 57.7842 76.604L60.9619 74.954C55.5582 77.1112 46.4694 78.3869 39.0231 77.7498C28.2125 76.8591 18.5554 69.7993 17.3454 67.7612C17.7213 68.0118 18.2315 68.2043 18.67 68.3983C31.3307 74.5048 47.6703 77.8171 68.5917 69.2921L70.315 67.636C51.2942 73.5485 34.6429 73.3621 16.7664 64.0121C16.965 63.1214 17.3469 62.3468 18.1658 61.7235C22.74 63.7478 27.1339 65.4115 32.4765 66.4871C38.7068 67.636 45.8263 67.8926 51.6807 67.636C57.5963 67.3823 69.2899 64.4551 74.8265 61.5294C75.3307 61.0864 75.5828 60.3286 76.0915 59.8153C65.2901 63.7478 52.44 65.5994 44.6865 65.0219C37.1194 64.4551 30.385 63.5598 21.4781 59.4914C23.2037 58.805 24.9641 58.2094 26.7519 57.7069C32.6033 59.4914 38.5754 60.5669 45.6353 60.8893C52.6356 61.2071 68.9736 58.6053 79.2724 52.3735C79.5947 51.4812 79.9094 50.5203 79.9094 50.5203C79.9094 50.5203 65.6018 58.1622 49.3936 58.1622C41.8235 58.1622 37.1836 57.0744 33.7537 56.2494C41.3774 54.8485 50.9825 53.7011 61.7839 50.9694C67.2533 49.5654 73.9954 46.383 77.0494 43.7155C79.6543 41.3551 81.6924 38.3011 80.9957 35.1966C80.8582 34.3594 79.7185 32.3978 78.3175 31.6935C79.6543 29.9747 79.5275 28.5096 79.3411 27.2476C79.2097 26.2775 78.7636 25.2065 78.1999 24.2532C77.3076 23.0982 76.4735 22.2014 74.7547 21.1915C75.0145 19.7248 74.8265 18.4568 74.2475 17.2468C72.9138 14.9567 70.5044 12.9889 66.3688 10.8897C66.1778 10.0586 65.6629 8.97846 64.7799 7.89985C59.5701 2.74665 51.0451 0.264012 43.8554 0.135679C43.4572 0.127247 43.059 0.123174 42.6607 0.123457C34.2518 0.123457 27.5051 2.01179 23.3251 3.96124ZM64.016 16.683C64.6561 15.9818 65.6018 14.9017 65.8539 14.0094C67.6399 15.1537 69.6749 16.871 69.9239 18.6539C68.0218 17.9465 65.9868 17.1948 64.016 16.683ZM65.6018 24.4396C62.5569 23.6085 59.8879 22.5894 56.316 21.9615C58.4854 21.1273 59.9399 20.2428 61.2201 19.2207C63.8488 19.9171 66.4216 20.8092 68.9171 21.8897C68.5443 22.4458 66.3657 24.4594 65.7011 24.4594C65.6669 24.4614 65.6327 24.4545 65.6018 24.4396ZM71.1369 26.6655C71.9762 26.0281 72.7445 25.3023 73.4286 24.5007C75.1397 25.9643 75.6485 26.9833 74.8265 28.5737C73.6868 27.7487 72.4676 27.2996 71.1369 26.6655ZM5.83972 42.4444C1.12653 35.9544 17.4661 31.3146 20.5889 30.3566C28.5349 27.9962 37.8207 26.2255 46.2174 25.2065C51.9908 24.5007 55.0525 25.1454 60.5235 26.6044C46.4679 30.3567 32.6018 31.5575 19.3758 35.4426C8.71195 38.541 5.88556 42.4444 5.83972 42.4444ZM9.32917 45.5565C14.2883 41.3551 24.4022 39.0054 28.0949 38.1773C39.8526 35.6336 50.7915 34.0447 55.3046 32.9035C60.7771 31.559 64.5919 30.291 67.2518 29.0229C67.3817 28.8304 71.7038 30.9265 72.1499 31.4291C70.6908 32.6453 68.6619 33.6658 66.4299 34.4205C59.7535 36.8405 47.6122 39.3812 41.191 40.3529C34.7056 41.4285 29.2896 42.2504 22.1151 44.151C17.9779 45.2403 15.176 46.5114 13.141 47.8512C11.6163 46.9575 10.7271 46.7085 9.32917 45.5565ZM18.5569 50.6471C20.6469 49.7564 22.9371 49.0551 25.1569 48.4914C36.3525 45.7414 46.2174 45.2403 59.8222 41.5553C66.3688 39.8304 71.1369 37.9803 74.1299 35.7023C74.5699 35.3112 75.0144 34.9965 75.4636 34.6176C79.4053 40.7242 64.5919 45.4312 54.475 47.6037C48.8772 48.7373 41.1192 50.1322 38.5754 50.5875C31.9739 51.6691 29.7999 52.2436 25.2257 53.5773C22.9371 52.6851 20.6469 51.7287 18.5554 50.6471H18.5569ZM6.65556 48.7373C7.67611 49.3805 8.43542 49.8923 9.65 50.5203C9.20236 50.9022 8.62639 51.2872 8.18639 51.7303C7.17347 51.1512 6.14833 49.8923 6.65708 48.7373H6.65556ZM11.9401 54.5903C12.5772 54.0204 13.3992 53.4505 14.2883 52.8807C16.1981 53.7744 18.1658 54.5918 20.0099 55.4214C18.67 55.9255 17.4661 56.5015 16.4563 57.1432C14.9285 56.306 13.4618 55.4825 11.9401 54.5918V54.5903ZM10.284 57.7069C11.3642 58.4082 12.4443 58.978 13.5306 59.5555C13.0844 60.1941 12.7621 60.6953 12.5772 61.3385C10.9853 60.0001 10.2153 58.9185 10.284 57.7069Z" fill="white"/>
</svg>
